<svg viewBox="0 0 180 180" fill='#828A99' xmlns="http://www.w3.org/2000/svg">
<path d="M118.028 56.4162H104.453L101.002 50.8727L94.3273 40.5212L78.4889 65.1273L71.1919 76.5535L65.2525 85.8303L57.9556 97.2L51.9596 106.477L44.6626 117.903H31.1434L38.4404 106.477L44.3798 97.2L51.6768 85.8303L57.6162 76.5535L87.5394 30H101.115L107.733 40.3515L114.521 50.8727L118.028 56.4162Z" />
<path d="M157.511 117.903H57.2202L65.3091 106.477L71.2485 97.2L78.5455 85.8303L84.5414 76.5535L91.8384 65.1273H123.685L130.982 76.5535H98.0606L92.1212 85.8303L84.8242 97.2L78.8848 106.477H136.638L130.699 97.2H96.5899L104.17 85.8303H136.921L144.275 97.2L150.214 106.477L157.511 117.903Z" />
<path d="M39.8545 150.089L38.2141 147.147H29.2202L31.4263 143.018H36.0646L32.7838 136.853L25.7131 150.089H20L29.8424 132.271C30.3515 131.309 31.1434 130.857 32.1616 130.857H33.3495C34.3111 130.857 35.103 131.309 35.6121 132.271L45.4545 150.089H39.8545Z" />
<path d="M54.901 150.089C53.4303 150.089 52.0727 149.863 50.8283 149.41C49.5838 148.958 48.5091 148.279 47.604 147.43C46.699 146.638 45.9636 145.62 45.4545 144.432C44.9455 143.244 44.7192 141.943 44.7192 140.473C44.7192 139.059 44.9455 137.701 45.4545 136.57C45.9636 135.382 46.699 134.364 47.604 133.515C48.5091 132.667 49.5838 131.988 50.8283 131.535C52.0727 131.083 53.4303 130.857 54.901 130.857H65.196V135.778H54.5616C53.8828 135.778 53.2606 135.891 52.695 136.117C52.0727 136.343 51.6202 136.683 51.1677 137.079C50.7717 137.531 50.4323 137.984 50.2061 138.606C49.9798 139.172 49.8667 139.794 49.8667 140.473C49.8667 141.152 49.9798 141.774 50.2061 142.396C50.4323 142.962 50.7717 143.414 51.1677 143.81C51.6202 144.263 52.0727 144.545 52.695 144.772C53.2606 144.998 53.8828 145.111 54.5616 145.111H60.2747V142.509H54.0525V138.38H65.196V150.089H54.901Z" />
<path d="M82.5051 150.089V135.778H75.3778V130.857H94.7232V135.778H87.6525V150.089H82.5051Z" />
<path d="M103.887 142.509V138.38H115.257V142.509H103.887ZM96.9859 150.089V130.857H115.426V135.778H102.133V145.111H115.483V150.089H96.9859Z" />
<path d="M128.097 150.089C126.57 150.089 125.212 149.863 123.968 149.41C122.723 148.958 121.648 148.279 120.8 147.43C119.895 146.638 119.16 145.62 118.651 144.432C118.141 143.244 117.859 141.943 117.859 140.473C117.859 139.059 118.141 137.701 118.651 136.57C119.16 135.382 119.895 134.364 120.8 133.515C121.648 132.667 122.723 131.988 123.968 131.535C125.212 131.083 126.57 130.857 128.097 130.857H137.487V135.778H127.701C127.022 135.778 126.4 135.891 125.834 136.117C125.269 136.343 124.76 136.683 124.364 137.079C123.968 137.531 123.628 137.984 123.402 138.606C123.176 139.172 123.063 139.794 123.063 140.473C123.063 141.152 123.176 141.774 123.402 142.396C123.628 142.962 123.968 143.414 124.364 143.81C124.76 144.263 125.269 144.545 125.834 144.772C126.4 144.998 127.022 145.111 127.701 145.111H137.487V150.089H128.097Z" />
<path d="M154.853 150.089V142.622H147.329V137.927H154.853V130.857H160V150.089H154.853ZM140.372 150.089V130.857H145.576V150.089H140.372Z" />
</svg>
