<svg width="180" height="180" viewBox="0 0 180 180" fill="none" xmlns="http://www.w3.org/2000/svg">
<path d="M55.1146 141.929C55.1146 142.074 55.0664 142.18 54.9796 142.257C54.8929 142.343 54.7772 142.382 54.6327 142.382H51.828C51.7027 142.382 51.5967 142.334 51.51 142.247C51.4232 142.16 51.3558 142.054 51.3269 141.929L50.1028 136.898H44.0117L42.7877 141.929C42.7588 142.054 42.6913 142.16 42.6046 142.247C42.5178 142.334 42.4118 142.382 42.2865 142.382H39.4819C39.3373 142.382 39.2217 142.343 39.1349 142.257C39.0482 142.18 39 142.074 39 141.929C39 141.91 39.0096 141.89 39.0096 141.881C39.0193 141.861 39.0289 141.833 39.0289 141.794L43.3756 125.178C43.5298 124.561 43.7611 124.08 44.0599 123.723C44.3587 123.376 44.6864 123.106 45.0333 122.913C45.3706 122.73 45.7272 122.615 46.0935 122.557C46.4501 122.509 46.7778 122.48 47.0573 122.48C47.3368 122.48 47.6645 122.509 48.0211 122.557C48.3873 122.615 48.7439 122.73 49.0812 122.913C49.4282 123.106 49.7462 123.376 50.0547 123.723C50.3534 124.08 50.5847 124.561 50.739 125.178L55.0856 141.794C55.0856 141.833 55.0953 141.861 55.0953 141.881C55.1049 141.89 55.1146 141.91 55.1146 141.929ZM47.4813 126.007C47.4428 125.843 47.4042 125.737 47.3464 125.67C47.2982 125.612 47.2018 125.583 47.0573 125.583C46.9127 125.583 46.8163 125.612 46.7681 125.67C46.7103 125.737 46.6718 125.843 46.6332 126.007L44.7249 133.872H49.3896L47.4813 126.007Z" fill="#5C8EE6"/>
<path d="M68.2317 141.669C68.2317 141.861 68.1932 141.996 68.1161 142.064C68.0293 142.131 67.8944 142.189 67.7016 142.218C67.5089 142.276 67.2294 142.324 66.8631 142.363C66.5065 142.411 66.1114 142.449 65.6873 142.488C65.2633 142.526 64.8295 142.546 64.3862 142.565C63.9429 142.584 63.5477 142.594 63.1911 142.594C62.3333 142.594 61.5237 142.526 60.7816 142.382C60.0395 142.237 59.3938 141.967 58.8541 141.572C58.3047 141.177 57.871 140.618 57.5529 139.915C57.2349 139.211 57.071 138.295 57.071 137.158V123.222C57.071 123.077 57.1289 122.952 57.2349 122.846C57.3409 122.74 57.4662 122.692 57.6011 122.692H60.2226C60.3672 122.692 60.4925 122.74 60.5985 122.846C60.7045 122.952 60.7624 123.077 60.7624 123.222V137.158C60.7624 138.045 60.9069 138.642 61.2057 138.96C61.5045 139.279 62.0442 139.442 62.8249 139.442H67.7016C67.8462 139.442 67.9619 139.491 68.0679 139.597C68.1739 139.703 68.2317 139.828 68.2317 139.972V141.669Z" fill="#5C8EE6"/>
<path d="M74.4289 141.852C74.4289 141.996 74.3807 142.112 74.2747 142.218C74.1687 142.324 74.0434 142.382 73.8988 142.382H71.2773C71.1327 142.382 71.0171 142.324 70.9111 142.218C70.805 142.112 70.7472 141.996 70.7472 141.852V123.193C70.7472 123.058 70.805 122.933 70.9111 122.836C71.0171 122.74 71.1327 122.692 71.2773 122.692H73.8988C74.0434 122.692 74.1687 122.74 74.2747 122.836C74.3807 122.933 74.4289 123.058 74.4289 123.193V141.852Z" fill="#5C8EE6"/>
<path d="M93.03 141.929C93.03 142.074 92.9915 142.18 92.9047 142.257C92.818 142.343 92.7023 142.382 92.5578 142.382H89.7435C89.6278 142.382 89.5218 142.334 89.4351 142.247C89.3387 142.16 89.2809 142.054 89.2423 141.929L88.0279 136.898H81.9272L80.7128 141.929C80.6742 142.054 80.6164 142.16 80.5297 142.247C80.4333 142.334 80.3273 142.382 80.2116 142.382H77.3974C77.2624 142.382 77.1468 142.343 77.0504 142.257C76.9637 142.18 76.9251 142.074 76.9251 141.929C76.9251 141.91 76.9251 141.89 76.9347 141.881C76.9444 141.861 76.9444 141.833 76.9444 141.794L81.2911 125.178C81.4549 124.561 81.6862 124.08 81.985 123.723C82.2838 123.376 82.6018 123.106 82.9488 122.913C83.2957 122.73 83.6523 122.615 84.0089 122.557C84.3752 122.509 84.6932 122.48 84.9824 122.48C85.2619 122.48 85.5799 122.509 85.9462 122.557C86.3124 122.615 86.6594 122.73 87.0063 122.913C87.3533 123.106 87.6713 123.376 87.9701 123.723C88.2689 124.08 88.5002 124.561 88.664 125.178L93.0107 141.794C93.0107 141.833 93.0107 141.861 93.0204 141.881C93.03 141.89 93.03 141.91 93.03 141.929ZM85.4064 126.007C85.3679 125.843 85.3197 125.737 85.2715 125.67C85.2137 125.612 85.1173 125.583 84.9824 125.583C84.8378 125.583 84.7414 125.612 84.6836 125.67C84.6354 125.737 84.5872 125.843 84.5583 126.007L82.65 133.872H87.3147L85.4064 126.007Z" fill="#5C8EE6"/>
<path d="M110.417 141.322C110.417 141.621 110.32 141.871 110.118 142.074C109.906 142.276 109.655 142.382 109.357 142.382H106.677C106.369 142.382 106.07 142.343 105.791 142.257C105.521 142.18 105.28 141.9 105.068 141.428L99.179 128.523C99.1115 128.378 99.0344 128.311 98.9477 128.311C98.8513 128.311 98.8127 128.378 98.8127 128.523V141.852C98.8127 141.996 98.7646 142.112 98.6682 142.218C98.5718 142.324 98.4465 142.382 98.3116 142.382H96.0563C95.9117 142.382 95.7864 142.324 95.6804 142.218C95.5744 142.112 95.5262 141.996 95.5262 141.852V123.752C95.5262 123.453 95.6226 123.203 95.8346 123C96.037 122.798 96.2876 122.692 96.5864 122.692H99.4488C99.7283 122.692 99.9597 122.74 100.123 122.846C100.287 122.952 100.451 123.183 100.615 123.54L106.783 137.158C106.841 137.303 106.909 137.37 106.995 137.37C107.092 137.37 107.13 137.293 107.13 137.129V123.193C107.13 122.856 107.304 122.692 107.631 122.692H109.916C110.253 122.692 110.417 122.856 110.417 123.193V141.322Z" fill="#5C8EE6"/>
<path d="M126.107 141.563C126.107 141.755 126.049 141.89 125.943 141.967C125.837 142.054 125.702 142.112 125.519 142.17C125.413 142.208 125.24 142.247 124.98 142.286C124.719 142.334 124.411 142.372 124.035 142.42C123.669 142.469 123.254 142.507 122.792 142.536C122.339 142.575 121.847 142.594 121.336 142.594C120.546 142.594 119.698 142.478 118.821 142.247C117.934 142.016 117.134 141.601 116.402 140.994C115.669 140.377 115.072 139.558 114.59 138.507C114.108 137.467 113.867 136.127 113.867 134.488V130.585C113.867 128.927 114.108 127.568 114.59 126.518C115.072 125.467 115.669 124.639 116.402 124.041C117.134 123.443 117.934 123.029 118.821 122.807C119.698 122.586 120.546 122.48 121.336 122.48C121.847 122.48 122.339 122.499 122.792 122.528C123.254 122.566 123.669 122.605 124.035 122.653C124.411 122.692 124.719 122.74 124.98 122.798C125.24 122.846 125.413 122.884 125.519 122.904C125.702 122.952 125.837 123.019 125.943 123.106C126.049 123.183 126.107 123.318 126.107 123.511V125.284C126.107 125.448 126.069 125.583 125.992 125.689C125.905 125.795 125.77 125.843 125.577 125.843H125.519C125.298 125.824 125.018 125.805 124.69 125.776C124.363 125.757 124.016 125.728 123.64 125.708C123.274 125.699 122.888 125.679 122.503 125.66C122.117 125.641 121.741 125.631 121.385 125.631C120.826 125.631 120.305 125.718 119.843 125.882C119.37 126.055 118.966 126.325 118.638 126.711C118.301 127.087 118.031 127.597 117.838 128.233C117.645 128.87 117.549 129.65 117.549 130.585V134.488C117.549 135.404 117.645 136.175 117.838 136.811C118.031 137.447 118.301 137.968 118.638 138.353C118.966 138.739 119.37 139.018 119.843 139.192C120.305 139.356 120.826 139.442 121.385 139.442C121.741 139.442 122.117 139.433 122.503 139.413C122.888 139.394 123.274 139.375 123.64 139.356C124.016 139.346 124.363 139.317 124.69 139.298C125.018 139.269 125.298 139.25 125.519 139.23H125.577C125.77 139.23 125.905 139.279 125.992 139.385C126.069 139.491 126.107 139.625 126.107 139.78V141.563Z" fill="#5C8EE6"/>
<path d="M141.027 141.669C141.027 141.861 140.988 141.996 140.911 142.064C140.824 142.131 140.689 142.189 140.497 142.218C140.285 142.257 140.053 142.295 139.793 142.343C139.533 142.382 139.215 142.42 138.839 142.459C138.463 142.498 138 142.526 137.461 142.555C136.921 142.584 136.256 142.594 135.456 142.594C134.598 142.594 133.789 142.526 133.047 142.382C132.304 142.237 131.649 141.967 131.1 141.572C130.55 141.177 130.117 140.618 129.799 139.915C129.471 139.211 129.317 138.295 129.317 137.158V127.915C129.317 126.778 129.471 125.863 129.799 125.159C130.117 124.446 130.55 123.896 131.1 123.501C131.649 123.106 132.304 122.836 133.047 122.692C133.789 122.547 134.598 122.48 135.456 122.48C136.256 122.48 136.921 122.489 137.461 122.518C138 122.547 138.463 122.576 138.839 122.615C139.215 122.644 139.533 122.692 139.793 122.73C140.053 122.778 140.285 122.817 140.497 122.846C140.689 122.884 140.824 122.942 140.911 123.01C140.988 123.077 141.027 123.212 141.027 123.405V125.101C141.027 125.246 140.969 125.371 140.863 125.477C140.757 125.583 140.641 125.631 140.497 125.631H135.09C134.309 125.631 133.769 125.795 133.461 126.113C133.153 126.431 132.998 127.029 132.998 127.915V130.778H140.179C140.323 130.778 140.439 130.826 140.545 130.932C140.651 131.038 140.709 131.163 140.709 131.308V133.216C140.709 133.351 140.651 133.477 140.545 133.583C140.439 133.689 140.323 133.746 140.179 133.746H132.998V137.158C132.998 138.045 133.153 138.642 133.461 138.96C133.769 139.279 134.309 139.442 135.09 139.442H140.497C140.641 139.442 140.757 139.491 140.863 139.597C140.969 139.703 141.027 139.828 141.027 139.972V141.669Z" fill="#5C8EE6"/>
<path d="M48.8499 151.23C48.8499 151.972 48.715 152.598 48.4548 153.099C48.1849 153.61 47.8283 154.015 47.385 154.333C46.932 154.641 46.4212 154.853 45.8333 154.988C45.2454 155.114 44.6285 155.181 43.9732 155.181C43.7418 155.181 43.4816 155.171 43.1925 155.152C42.8937 155.143 42.6528 155.123 42.46 155.114V159.528C42.46 159.614 42.4311 159.692 42.3733 159.759C42.3058 159.827 42.2287 159.865 42.142 159.865H40.4553C40.3589 159.865 40.2818 159.827 40.2144 159.759C40.1469 159.692 40.1084 159.614 40.1084 159.528V147.895C40.1084 147.731 40.1565 147.606 40.2529 147.538C40.3493 147.461 40.4842 147.413 40.6577 147.394C41.0914 147.326 41.6022 147.268 42.1805 147.23C42.7588 147.191 43.3563 147.172 43.9732 147.172C44.6285 147.172 45.2454 147.23 45.8333 147.355C46.4212 147.48 46.9416 147.692 47.385 148.001C47.8283 148.3 48.1849 148.704 48.4548 149.206C48.715 149.707 48.8499 150.333 48.8499 151.075V151.23ZM46.4983 151.066C46.4983 150.352 46.2862 149.851 45.8622 149.553C45.4477 149.244 44.8116 149.1 43.9635 149.1C43.8768 149.1 43.7611 149.1 43.6166 149.109C43.4816 149.109 43.337 149.119 43.1925 149.128C43.0383 149.128 42.9033 149.138 42.7781 149.138C42.6431 149.148 42.5371 149.157 42.46 149.167V153.205C42.5275 153.205 42.6335 153.205 42.7781 153.215C42.913 153.215 43.0576 153.225 43.2118 153.234C43.366 153.234 43.5105 153.244 43.6551 153.244C43.79 153.253 43.896 153.253 43.9635 153.253C44.8791 153.253 45.5249 153.09 45.92 152.743C46.3055 152.405 46.4983 151.895 46.4983 151.22V151.066Z" fill="#5C8EE6"/>
<path d="M59.8178 159.663C59.8178 159.798 59.7504 159.865 59.6154 159.865H57.5529C57.4662 159.865 57.3891 159.827 57.3505 159.759C57.3024 159.692 57.2542 159.614 57.2156 159.528L54.7772 155.027H54.5459C54.3146 155.027 54.064 155.017 53.7652 155.008C53.4761 154.988 53.2352 154.969 53.0424 154.959V159.528C53.0424 159.614 53.0039 159.692 52.946 159.759C52.8882 159.827 52.8111 159.865 52.7147 159.865H51.0281C50.9413 159.865 50.8642 159.827 50.7968 159.759C50.7293 159.692 50.6908 159.614 50.6908 159.528V147.895C50.6908 147.731 50.7389 147.606 50.8353 147.538C50.9317 147.461 51.0666 147.413 51.2305 147.394C51.6738 147.326 52.1846 147.268 52.7533 147.23C53.3315 147.191 53.9291 147.172 54.5556 147.172C55.2013 147.172 55.8278 147.239 56.4157 147.365C57.0036 147.5 57.5144 147.712 57.9577 148.001C58.4107 148.29 58.7673 148.685 59.0275 149.177C59.2974 149.668 59.4227 150.266 59.4227 150.989V151.143C59.4227 152.049 59.2203 152.772 58.8059 153.34C58.3914 153.899 57.8324 154.323 57.1289 154.593L59.7793 159.528C59.8082 159.557 59.8178 159.605 59.8178 159.663ZM57.0807 150.989C57.0807 150.352 56.8686 149.89 56.4446 149.61C56.0205 149.321 55.3844 149.186 54.5459 149.186C54.4495 149.186 54.3339 149.186 54.199 149.196C54.0544 149.196 53.9098 149.206 53.7652 149.206C53.6207 149.215 53.4857 149.215 53.3508 149.225C53.2255 149.234 53.1195 149.244 53.0424 149.254V153.051C53.1099 153.051 53.2159 153.051 53.3508 153.061C53.4954 153.07 53.64 153.07 53.7942 153.08C53.9484 153.08 54.0929 153.09 54.2279 153.099C54.3724 153.099 54.4785 153.099 54.5459 153.099C55.423 153.099 56.0687 152.964 56.4735 152.685C56.8783 152.396 57.0807 151.885 57.0807 151.143V150.989Z" fill="#5C8EE6"/>
<path d="M70.6605 154.728C70.6605 155.663 70.5448 156.463 70.3039 157.128C70.0533 157.793 69.7256 158.333 69.3015 158.757C68.8678 159.181 68.3667 159.489 67.7787 159.692C67.1908 159.894 66.5547 160 65.8512 160C65.1572 160 64.5211 159.894 63.9332 159.692C63.3453 159.489 62.8441 159.181 62.4104 158.757C61.9864 158.333 61.6587 157.793 61.4081 157.128C61.1671 156.463 61.0515 155.663 61.0515 154.728V152.444C61.0515 151.519 61.1671 150.719 61.4081 150.054C61.6587 149.379 61.9864 148.839 62.4104 148.415C62.8441 147.991 63.3453 147.683 63.9332 147.48C64.5211 147.278 65.1572 147.172 65.8512 147.172C66.5547 147.172 67.1908 147.278 67.7787 147.48C68.3667 147.683 68.8678 147.991 69.3015 148.415C69.7256 148.839 70.0533 149.379 70.3039 150.054C70.5448 150.719 70.6605 151.519 70.6605 152.444V154.728ZM68.3185 152.444C68.3185 151.316 68.1161 150.497 67.7113 149.986C67.3161 149.475 66.6897 149.215 65.8512 149.215C65.0223 149.215 64.3958 149.475 64.0007 149.986C63.5959 150.497 63.3935 151.316 63.3935 152.444V154.728C63.3935 155.856 63.5959 156.675 64.0007 157.186C64.3958 157.697 65.0223 157.957 65.8512 157.957C66.6897 157.957 67.3161 157.697 67.7113 157.186C68.1161 156.675 68.3185 155.856 68.3185 154.728V152.444Z" fill="#5C8EE6"/>
<path d="M81.9657 154.824C81.9657 156.501 81.5127 157.783 80.5875 158.67C79.6719 159.557 78.3611 160 76.6552 160C76.3468 160 76.0288 159.99 75.6914 159.981C75.3638 159.971 75.0361 159.952 74.7277 159.933C74.4192 159.904 74.1397 159.884 73.8892 159.865C73.6289 159.836 73.4362 159.817 73.3205 159.798C73.1663 159.769 73.0603 159.72 72.9832 159.643C72.9157 159.566 72.8772 159.441 72.8772 159.268V147.895C72.8772 147.731 72.9157 147.606 72.9832 147.529C73.0603 147.451 73.1663 147.394 73.3205 147.374C73.4362 147.355 73.6289 147.326 73.8892 147.307C74.1397 147.288 74.4192 147.259 74.7277 147.239C75.0361 147.22 75.3638 147.201 75.6914 147.191C76.0288 147.182 76.3468 147.172 76.6552 147.172C78.3611 147.172 79.6719 147.615 80.5875 148.502C81.5127 149.379 81.9657 150.661 81.9657 152.348V154.824ZM79.6237 152.348C79.6237 151.721 79.5466 151.191 79.3924 150.786C79.2382 150.372 79.0262 150.044 78.7659 149.803C78.4961 149.562 78.1877 149.389 77.8214 149.292C77.4552 149.196 77.06 149.148 76.6456 149.148C76.3275 149.148 76.0577 149.157 75.836 149.167C75.6047 149.177 75.4023 149.186 75.2288 149.196V157.986C75.4023 157.995 75.6047 158.005 75.836 158.024C76.0577 158.034 76.3275 158.034 76.6456 158.034C77.06 158.034 77.4552 157.986 77.8214 157.889C78.1877 157.803 78.4961 157.629 78.7659 157.388C79.0262 157.138 79.2382 156.819 79.3924 156.405C79.5466 155.991 79.6237 155.47 79.6237 154.834V152.348Z" fill="#5C8EE6"/>
<path d="M93.3577 155.22C93.3577 156.116 93.242 156.868 93.0107 157.475C92.7794 158.092 92.4614 158.574 92.0469 158.949C91.6325 159.325 91.141 159.586 90.5724 159.749C90.0037 159.913 89.3869 160 88.7122 160C88.0376 160 87.4111 159.913 86.8425 159.749C86.2738 159.586 85.7823 159.325 85.3679 158.949C84.9631 158.574 84.645 158.092 84.4137 157.475C84.1824 156.868 84.0668 156.116 84.0668 155.22V147.625C84.0668 147.538 84.0957 147.461 84.1632 147.403C84.2306 147.336 84.3077 147.307 84.4041 147.307H86.0715C86.1678 147.307 86.2449 147.336 86.3124 147.403C86.3799 147.461 86.4088 147.538 86.4088 147.625V155.229C86.4088 155.711 86.4473 156.135 86.5148 156.492C86.5823 156.839 86.6979 157.138 86.881 157.378C87.0545 157.619 87.2858 157.793 87.575 157.899C87.8737 158.015 88.2496 158.072 88.7122 158.072C89.1556 158.072 89.5315 158.015 89.8302 157.899C90.129 157.793 90.37 157.619 90.5434 157.378C90.7169 157.138 90.8422 156.839 90.9097 156.492C90.9771 156.135 91.0061 155.711 91.0061 155.229V147.625C91.0061 147.538 91.0446 147.461 91.1121 147.403C91.1795 147.336 91.2566 147.307 91.3434 147.307H93.0204C93.1071 147.307 93.1842 147.336 93.2517 147.403C93.3191 147.461 93.3577 147.538 93.3577 147.625V155.22Z" fill="#5C8EE6"/>
<path d="M103.275 159.335C103.275 159.46 103.246 159.547 103.179 159.605C103.111 159.653 103.015 159.692 102.899 159.73C102.832 159.749 102.716 159.778 102.562 159.807C102.398 159.836 102.196 159.855 101.955 159.884C101.723 159.913 101.454 159.942 101.164 159.961C100.875 159.99 100.557 160 100.23 160C99.7283 160 99.1886 159.923 98.6296 159.778C98.061 159.634 97.5502 159.364 97.0876 158.978C96.6249 158.583 96.2394 158.063 95.931 157.398C95.6226 156.733 95.4684 155.875 95.4684 154.824V152.348C95.4684 151.287 95.6226 150.42 95.931 149.745C96.2394 149.08 96.6249 148.55 97.0876 148.165C97.5502 147.789 98.061 147.529 98.6296 147.384C99.1886 147.239 99.7283 147.172 100.23 147.172C100.557 147.172 100.875 147.182 101.164 147.211C101.454 147.23 101.723 147.259 101.955 147.278C102.196 147.307 102.398 147.345 102.562 147.374C102.716 147.413 102.832 147.432 102.899 147.442C103.015 147.48 103.111 147.519 103.179 147.567C103.246 147.615 103.275 147.712 103.275 147.827V148.965C103.275 149.061 103.246 149.148 103.198 149.215C103.15 149.283 103.063 149.321 102.938 149.321H102.899C102.755 149.312 102.581 149.292 102.369 149.273C102.167 149.263 101.945 149.244 101.704 149.234C101.463 149.225 101.222 149.215 100.981 149.196C100.731 149.186 100.49 149.186 100.268 149.186C99.9115 149.186 99.5741 149.234 99.2754 149.34C98.9766 149.447 98.726 149.63 98.514 149.871C98.2923 150.112 98.1285 150.43 98.0032 150.834C97.8779 151.249 97.82 151.75 97.82 152.348V154.824C97.82 155.412 97.8779 155.904 98.0032 156.318C98.1285 156.723 98.2923 157.051 98.514 157.292C98.726 157.542 98.9766 157.716 99.2754 157.822C99.5741 157.937 99.9115 157.986 100.268 157.986C100.49 157.986 100.731 157.976 100.981 157.966C101.222 157.957 101.463 157.947 101.704 157.937C101.945 157.928 102.167 157.909 102.369 157.889C102.581 157.88 102.755 157.86 102.899 157.851H102.938C103.063 157.851 103.15 157.889 103.198 157.957C103.246 158.024 103.275 158.101 103.275 158.207V159.335Z" fill="#5C8EE6"/>
<path d="M113.414 148.965C113.414 149.051 113.376 149.128 113.308 149.186C113.241 149.244 113.164 149.263 113.077 149.263H110.118V159.528C110.118 159.614 110.089 159.692 110.022 159.759C109.954 159.827 109.867 159.865 109.781 159.865H108.104C108.017 159.865 107.94 159.827 107.872 159.759C107.805 159.692 107.766 159.614 107.766 159.528V149.263H104.817C104.721 149.263 104.644 149.244 104.576 149.186C104.509 149.128 104.48 149.051 104.48 148.965V147.625C104.48 147.538 104.509 147.461 104.576 147.403C104.644 147.336 104.721 147.307 104.817 147.307H113.077C113.164 147.307 113.241 147.336 113.308 147.403C113.376 147.461 113.414 147.538 113.414 147.625V148.965Z" fill="#5C8EE6"/>
<path d="M117.452 159.528C117.452 159.614 117.414 159.692 117.346 159.759C117.279 159.827 117.202 159.865 117.115 159.865H115.438C115.351 159.865 115.274 159.827 115.207 159.759C115.139 159.692 115.101 159.614 115.101 159.528V147.625C115.101 147.538 115.139 147.461 115.207 147.403C115.274 147.336 115.351 147.307 115.438 147.307H117.115C117.202 147.307 117.279 147.336 117.346 147.403C117.414 147.461 117.452 147.538 117.452 147.625V159.528Z" fill="#5C8EE6"/>
<path d="M129.259 154.728C129.259 155.663 129.143 156.463 128.902 157.128C128.661 157.793 128.324 158.333 127.9 158.757C127.466 159.181 126.965 159.489 126.377 159.692C125.789 159.894 125.153 160 124.459 160C123.756 160 123.12 159.894 122.532 159.692C121.953 159.489 121.443 159.181 121.018 158.757C120.585 158.333 120.257 157.793 120.016 157.128C119.775 156.463 119.65 155.663 119.65 154.728V152.444C119.65 151.519 119.775 150.719 120.016 150.054C120.257 149.379 120.585 148.839 121.018 148.415C121.443 147.991 121.953 147.683 122.532 147.48C123.12 147.278 123.756 147.172 124.459 147.172C125.153 147.172 125.789 147.278 126.377 147.48C126.965 147.683 127.466 147.991 127.9 148.415C128.324 148.839 128.661 149.379 128.902 150.054C129.143 150.719 129.259 151.519 129.259 152.444V154.728ZM126.917 152.444C126.917 151.316 126.714 150.497 126.31 149.986C125.914 149.475 125.288 149.215 124.459 149.215C123.621 149.215 123.004 149.475 122.599 149.986C122.194 150.497 122.002 151.316 122.002 152.444V154.728C122.002 155.856 122.194 156.675 122.599 157.186C123.004 157.697 123.621 157.957 124.459 157.957C125.288 157.957 125.914 157.697 126.31 157.186C126.714 156.675 126.917 155.856 126.917 154.728V152.444Z" fill="#5C8EE6"/>
<path d="M140.969 159.19C140.969 159.374 140.911 159.537 140.776 159.672C140.651 159.798 140.487 159.865 140.294 159.865H138.588C138.386 159.865 138.203 159.836 138.029 159.788C137.846 159.74 137.692 159.557 137.557 159.258L133.808 151.027C133.76 150.931 133.712 150.892 133.654 150.892C133.596 150.892 133.577 150.931 133.577 151.027V159.528C133.577 159.614 133.538 159.692 133.48 159.759C133.413 159.827 133.345 159.865 133.249 159.865H131.813C131.726 159.865 131.649 159.827 131.582 159.759C131.514 159.692 131.476 159.614 131.476 159.528V147.982C131.476 147.789 131.543 147.635 131.668 147.5C131.803 147.374 131.957 147.307 132.15 147.307H133.981C134.155 147.307 134.299 147.345 134.405 147.413C134.511 147.48 134.618 147.625 134.724 147.847L138.656 156.53C138.694 156.627 138.733 156.665 138.791 156.665C138.849 156.665 138.877 156.617 138.877 156.521V147.625C138.877 147.413 138.983 147.307 139.196 147.307H140.651C140.863 147.307 140.969 147.413 140.969 147.625V159.19Z" fill="#5C8EE6"/>
<path fill-rule="evenodd" clip-rule="evenodd" d="M89.9459 29.8788C94.5721 29.8788 98.9862 30.7848 103.015 32.4329V64.0162C103.015 71.1772 97.2129 76.9792 90.0519 76.9792C87.0063 76.9792 84.2113 75.9287 81.9946 74.1746V85.6533C84.5005 86.5882 87.2184 87.099 90.0519 87.099C104.133 87.099 113.183 75.9769 113.183 62.4935V26.573C106.427 22.4095 98.4658 20 89.9459 20C65.4367 20 45.573 39.8637 45.573 64.3728C45.573 78.3671 52.0497 90.8481 62.1695 98.9825V84.8437C57.9481 79.1188 55.4422 72.035 55.4422 64.3728C55.4422 45.3187 70.8918 29.8788 89.9459 29.8788Z" fill="#5C8EE6"/>
<path fill-rule="evenodd" clip-rule="evenodd" d="M90.0808 98.8958C85.4546 98.8958 81.0405 97.9898 77.0118 96.3321V64.7487C77.0118 57.5974 82.8138 51.7858 89.9748 51.7858C93.0204 51.7858 95.8154 52.8363 98.0321 54.6V43.1213C95.5262 42.1864 92.8083 41.6756 89.9748 41.6756C75.8938 41.6756 66.8342 52.7881 66.8342 66.2811V102.202C73.6 106.365 81.5609 108.775 90.0808 108.775C114.59 108.775 134.454 88.9013 134.454 64.4018C134.454 50.4075 127.977 37.9265 117.848 29.7921V43.9309C122.079 49.6558 124.575 56.7396 124.575 64.4018C124.575 83.4559 109.135 98.8958 90.0808 98.8958Z" fill="#5C8EE6"/>
</svg>
